<?xml version="1.0" encoding="UTF-8" standalone="no"?>
<svg width="360" height="360" viewBox="0 0 36 36" version="1.1" xmlns="http://www.w3.org/2000/svg" xmlns:xlink="http://www.w3.org/1999/xlink">
    <!-- Generator: Sketch 3.7.1 (28215) - http://www.bohemiancoding.com/sketch -->
    <title>leftnav-avatar-sm-active</title>
    <desc>Created with Sketch.</desc>
    <defs></defs>
    <g id="Page-1" stroke="none" stroke-width="1" fill="none" fill-rule="evenodd">
        <g id="leftnav-avatar-sm-active" fill="#000000">
            <path d="M18,1 C27.4,1 35,8.6 35,18 C35,27.4 27.4,35 18,35 C8.6,35 1,27.4 1,18 C1,8.6 8.6,1 18,1 L18,1 Z M18,0 C8.1,0 0,8.1 0,18 C0,27.9 8.1,36 18,36 C27.9,36 36,27.9 36,18 C36,8.1 27.9,0 18,0 Z M18,20 C22.1,20 25.4,23.1 25.9,27 L10.1,27 C10.6,23.1 13.9,20 18,20 Z M18,19 C13,19 9,23 9,28 L27,28 C27,23 23,19 18,19 Z M18,8 C20.2,8 22,9.8 22,12 C22,14.2 20.2,16 18,16 C15.8,16 14,14.2 14,12 C14,9.8 15.8,8 18,8 Z M18,7 C15.2,7 13,9.2 13,12 C13,14.8 15.2,17 18,17 C20.8,17 23,14.8 23,12 C23,9.2 20.8,7 18,7 L18,7 Z" id="Fill-1"></path>
        </g>
    </g>
</svg>