<svg
    viewBox="0 0 40 47"
    version="1.1"
    xmlns="http://www.w3.org/2000/svg"
    xmlns:xlink="http://www.w3.org/1999/xlink">
    <g>
        <path
            id="top"
            fill="#AC744E"
            d="M9.75832697,26 C9.75832697,26 9.13397507,26.1261419 8.87398332,25.6568501 C8.61399157,25.1875583 8.87398332,24.639199 8.87398332,24.639199 L19.2888366,0.546463768 C19.2888366,0.546463768 19.5090572,0.100438335 20.0386365,0.100438335 C20.5682158,0.100438335 20.8169888,0.546463768 20.8169888,0.546463768 L31.4273852,24.470304 C31.4273852,24.470304 31.7406024,25.090005 31.4689762,25.5322075 C31.1973501,25.9744101 30.5505831,26 30.5505831,26 L9.75832697,26 Z"></path>
        <path
            id="left"
            fill="#887C6C"
            d="M7.08120016,28.8598251 C7.08120016,28.8598251 7.26441618,28.555065 7.72298108,28.5110896 C8.18154599,28.4671142 8.4700325,28.784481 8.4700325,28.784481 L27.023386,42.7277307 C27.023386,42.7277307 27.4308879,43.0219971 27.3649735,43.5311287 C27.2990591,44.0402604 26.8184779,44.2054186 26.8184779,44.2054186 L1.66082451,46.1917517 C1.66082451,46.1917517 0.782608602,46.2612386 0.338163275,45.7550905 C-0.106282052,45.2489424 0.0536847203,44.5821631 0.0536847203,44.5821631 L7.08120016,28.8598251 Z"></path>
        <path
            id="right"
            fill="#F3C251"
            d="M12.6849365,28.8356196 C12.7972574,28.3957162 13.1179871,28 13.7070949,28 C13.7070949,28 26.3096901,28.6750284 31.1634842,28.8356196 C31.4589142,28.8453941 31.762085,28.8402322 32.0185579,29.0035773 C32.2750309,29.1669224 32.3010982,29.3911748 32.4267602,29.6542907 C34.8980147,34.8286975 39.8405238,45.1775113 39.8405238,45.1775113 C39.8405238,45.1775113 40.1743613,45.8281931 39.7619427,46.2278893 C39.349524,46.6275854 38.8180617,46.567796 38.6127926,46.4395817 L13.1179871,29.8900682 C12.943337,29.726544 12.5726156,29.2755231 12.6849365,28.8356196 Z"></path>
    </g>
</svg>
