<?xml version="1.0" encoding="UTF-8"?>
<svg width="40px" height="40px" viewBox="0 0 40 40" version="1.1" xmlns="http://www.w3.org/2000/svg" xmlns:xlink="http://www.w3.org/1999/xlink">
    <!-- Generator: Sketch 41.2 (35397) - http://www.bohemiancoding.com/sketch -->
    <title>Desktop</title>
    <desc>Created with Sketch.</desc>
    <defs>
        <polygon id="path-1" points="6.24473684 0.128070175 0.129649123 0.128070175 0.129649123 6.24308772 6.24473684 6.24308772 6.24473684 0.128070175"></polygon>
        <polygon id="path-3" points="6.20105263 0.128070175 0.0859649123 0.128070175 0.0859649123 6.24308772 6.20105263 6.24308772 6.20105263 0.128070175"></polygon>
        <polygon id="path-5" points="0.257578947 3.50877193 11.0393333 3.50877193 11.0393333 0.166070175 0.257578947 0.166070175 0.257578947 3.50877193"></polygon>
        <polygon id="path-7" points="0 28.9947018 39.6726316 28.9947018 39.6726316 0.350842105 0 0.350842105"></polygon>
    </defs>
    <g id="Page-1" stroke="none" stroke-width="1" fill="none" fill-rule="evenodd">
        <g id="Desktop">
            <g id="Page-1" transform="translate(0.000000, 5.000000)">
                <g id="Group-3" transform="translate(13.684211, 0.222772)">
                    <mask id="mask-2" fill="white">
                        <use xlink:href="#path-1"></use>
                    </mask>
                    <g id="Clip-2"></g>
                    <path d="M6.24473684,3.18554386 C6.24473684,4.87396491 4.87596491,6.24308772 3.18719298,6.24308772 C1.49877193,6.24308772 0.129649123,4.87396491 0.129649123,3.18554386 C0.129649123,1.49712281 1.49877193,0.128 3.18719298,0.128 C4.87596491,0.128 6.24473684,1.49712281 6.24473684,3.18554386" id="Fill-1" fill="#F9B1BD" mask="url(#mask-2)"></path>
                </g>
                <g id="Group-6" transform="translate(20.350877, 0.222772)">
                    <mask id="mask-4" fill="white">
                        <use xlink:href="#path-3"></use>
                    </mask>
                    <g id="Clip-5"></g>
                    <path d="M6.20105263,3.18554386 C6.20105263,4.87396491 4.8322807,6.24308772 3.14350877,6.24308772 C1.45508772,6.24308772 0.0859649123,4.87396491 0.0859649123,3.18554386 C0.0859649123,1.49712281 1.45508772,0.128 3.14350877,0.128 C4.8322807,0.128 6.20105263,1.49712281 6.20105263,3.18554386" id="Fill-4" fill="#F9B1BD" mask="url(#mask-4)"></path>
                </g>
                <path d="M14.5364211,9.89887719 C14.5364211,7.92975439 17.7013333,6.46589474 20.125193,6.56063158 C22.9364211,6.56063158 24.8890526,7.968 25.3181754,9.89887719 L14.5364211,9.89887719 Z" id="Fill-7" fill="#EFB410"></path>
                <g id="Group-11" transform="translate(14.385965, 25.485930)">
                    <mask id="mask-6" fill="white">
                        <use xlink:href="#path-5"></use>
                    </mask>
                    <g id="Clip-10"></g>
                    <path d="M11.0393333,0.166070175 C11.0393333,2.13519298 7.87442105,3.59905263 5.45091228,3.50466667 C2.63933333,3.50466667 0.687052632,2.09729825 0.257578947,0.166070175 L11.0393333,0.166070175 Z" id="Fill-9" fill="#EFB410" mask="url(#mask-6)"></path>
                </g>
                <mask id="mask-8" fill="white">
                    <use xlink:href="#path-7"></use>
                </mask>
                <g id="Clip-13"></g>
                <polygon id="Fill-12" fill="#EFB410" mask="url(#mask-8)" points="13.6782456 15.9066316 26.2835088 15.9066316 26.2835088 13.1708421 13.6782456 13.1708421"></polygon>
                <polygon id="Fill-14" fill="#EFB410" mask="url(#mask-8)" points="13.7319298 22.3434737 26.3375439 22.3434737 26.3375439 19.6076842 13.7319298 19.6076842"></polygon>
                <path d="M9.45557895,20.8106667 C8.80821053,22.7310175 6.99277193,24.1134737 4.85452632,24.1134737 C2.17347368,24.1134737 0.000140350877,21.9401404 0.000140350877,19.2590877 C0.000140350877,17.4247018 1.01768421,15.8278596 2.51908772,15.0022456 C2.86575439,14.8117193 13.5710175,9.14785965 13.5710175,9.14785965 C13.6250526,9.20119298 9.53768421,20.5671579 9.45557895,20.8106667" id="Fill-15" fill="#25913B" mask="url(#mask-8)"></path>
                <path d="M37.2170175,15.0367719 C38.9787719,16.0381754 39.99,18.0837895 39.5826316,20.1830877 C39.0721053,22.8146667 36.524386,24.5343158 33.8924561,24.0237895 C32.0917544,23.6743158 30.7180702,22.3711579 30.1935088,20.7395789 C30.072807,20.3630877 26.5517544,8.77501754 26.5517544,8.77501754 C26.6145614,8.73221053 36.9935088,14.9097544 37.2170175,15.0367719" id="Fill-16" fill="#25913B" mask="url(#mask-8)"></path>
            </g>
        </g>
    </g>
</svg>